# xmcd
#
# Track frame offsets: 
#        150
#        19827
#        32772
#        50696
#        72529
#        98129
#        120880
#        144536
#        160321
#        175062
#        194603
#
# Disc length: 2912 seconds
#
# Revision: 0
# Processed by: cddbd v1.5.2PL0 Copyright (c) Steve Scherf et al.
# Submitted via: ExactAudioCopyFreeDBPlugin 1.0
#
DISCID=980b5e0b
DTITLE=Jace Everett - Mr. Good Times
DYEAR=2011
DGENRE=
TTITLE0=Great American Hero
TTITLE1=The Drugs Aren't Getting It Done
TTITLE2=Business Is Booming
TTITLE3=Let's Begin Again
TTITLE4=God Made You Mean
TTITLE5=Nothing
TTITLE6=Good Times
TTITLE7=Angry Hostile Ugly
TTITLE8=Don't Look Down
TTITLE9=Tricky Thing
TTITLE10=Autumn
EXTD=
EXTT0=
EXTT1=
EXTT2=
EXTT3=
EXTT4=
EXTT5=
EXTT6=
EXTT7=
EXTT8=
EXTT9=
EXTT10=
PLAYORDER=
